<?xml version="1.0" standalone="no"?>
<!DOCTYPE svg PUBLIC "-//W3C//DTD SVG 20010904//EN"
 "http://www.w3.org/TR/2001/REC-SVG-20010904/DTD/svg10.dtd">
<svg version="1.0" xmlns="http://www.w3.org/2000/svg"
 width="641.000000pt" height="623.000000pt" viewBox="0 0 641.000000 623.000000"
 preserveAspectRatio="xMidYMid meet">

<g transform="translate(0.000000,623.000000) scale(0.100000,-0.100000)"
fill="#000000" stroke="none">
<path d="M355 6113 c-78 -7 -144 -24 -169 -44 -28 -22 -35 -63 -12 -76 12 -6
18 -77 31 -348 8 -187 18 -346 20 -352 6 -18 52 -16 59 3 3 8 -1 175 -11 370
-9 195 -13 357 -11 360 15 15 157 24 379 24 220 0 248 2 253 16 4 9 4 25 1 35
-6 18 -21 19 -253 17 -136 -1 -265 -3 -287 -5z"/>
<path d="M5396 6047 c-10 -7 -16 -22 -14 -33 3 -18 15 -19 338 -19 l335 0 5
-319 c4 -283 7 -320 22 -329 12 -8 21 -7 32 2 14 12 16 55 16 347 0 289 -2
335 -16 348 -19 19 -26 20 -42 4 -9 -9 -15 -9 -24 0 -18 18 -627 17 -652 -1z"/>
<path d="M2939 5026 c-3 -3 -27 -6 -54 -7 -71 -2 -123 -17 -134 -38 -5 -9 -16
-44 -25 -77 -8 -32 -21 -77 -30 -99 -19 -50 -20 -119 -3 -137 8 -7 16 -25 19
-39 4 -22 -1 -29 -31 -44 -76 -37 -86 -44 -89 -65 -5 -32 32 -102 67 -125 30
-19 32 -35 5 -35 -9 0 -49 -16 -91 -35 -42 -19 -78 -33 -81 -31 -2 3 3 41 12
86 19 93 14 125 -38 230 -76 150 -172 271 -233 291 -99 32 -408 -21 -623 -108
-91 -37 -173 -90 -184 -119 -3 -8 -11 -14 -19 -14 -17 0 -70 -56 -93 -100 -16
-29 -19 -55 -17 -158 1 -115 4 -127 32 -187 17 -35 31 -72 31 -82 0 -10 14
-43 32 -73 65 -114 78 -144 78 -180 0 -22 12 -60 30 -93 39 -73 39 -87 -1 -87
-21 0 -40 9 -57 28 -23 22 -51 33 -174 61 -138 32 -148 36 -148 57 0 16 -10
29 -30 39 -16 9 -30 20 -30 25 0 6 -14 10 -31 10 -23 0 -40 10 -65 37 -19 20
-34 41 -34 45 0 4 -9 8 -19 8 -23 0 -50 32 -120 144 -63 101 -115 149 -176
165 -53 13 -123 1 -142 -25 -10 -14 -16 -15 -25 -6 -7 7 -37 12 -67 12 -67 0
-160 -40 -206 -89 -25 -27 -30 -42 -37 -109 l-7 -77 36 -53 c19 -28 89 -102
154 -163 89 -83 154 -157 255 -291 75 -98 163 -202 196 -231 33 -29 68 -68 79
-87 11 -19 40 -60 64 -90 80 -98 187 -295 238 -435 14 -38 28 -77 32 -86 4
-11 -6 -24 -36 -43 -23 -15 -89 -76 -148 -135 -114 -114 -159 -183 -186 -287
-22 -82 -32 -376 -15 -428 17 -51 112 -145 191 -189 54 -30 219 -80 378 -115
23 -5 23 -7 18 -69 -4 -36 -13 -77 -20 -91 -8 -15 -35 -66 -61 -113 -25 -47
-64 -141 -86 -208 -36 -113 -165 -410 -196 -456 -8 -11 -14 -43 -14 -72 l0
-52 -37 -6 c-21 -3 -76 -20 -123 -37 -150 -54 -204 -66 -351 -79 -109 -9 -177
-10 -279 -2 -92 8 -139 8 -147 1 -15 -12 -17 -44 -5 -52 5 -3 70 -10 146 -17
107 -9 167 -9 274 0 126 12 243 30 283 46 14 5 17 -3 21 -50 5 -63 31 -98 82
-114 48 -15 331 -22 436 -11 52 6 149 12 215 13 80 3 135 10 164 20 24 10 56
17 71 17 40 0 60 10 60 28 0 8 17 30 38 47 20 18 72 85 116 148 134 198 216
261 405 313 100 28 111 29 111 10 0 -22 24 -26 83 -10 190 49 614 45 850 -10
83 -19 82 -19 101 -1 13 13 29 11 143 -24 192 -58 318 -106 373 -141 45 -29
48 -34 43 -63 -4 -28 2 -40 43 -86 36 -40 48 -61 46 -80 -5 -45 33 -70 119
-80 41 -5 85 -13 99 -19 14 -5 85 -19 158 -32 113 -19 159 -21 310 -17 189 4
234 13 282 53 24 21 30 34 30 66 0 80 -24 94 -182 103 -60 4 -108 11 -108 17
0 5 5 29 11 53 9 36 8 48 -5 67 -28 39 -20 66 39 127 38 40 53 63 49 75 -8 20
-43 21 -72 0 l-22 -15 6 93 c7 101 15 115 79 138 17 7 37 16 45 21 8 5 23 12
34 16 10 3 37 17 60 30 22 13 84 43 136 68 52 25 115 56 140 69 48 25 95 83
105 128 8 35 73 108 138 154 125 90 189 172 210 275 8 35 21 76 30 89 9 14 18
41 21 60 7 53 23 97 44 127 38 55 60 109 67 168 4 33 28 123 52 200 24 77 50
185 58 240 7 55 27 140 44 189 17 50 31 103 31 118 0 16 9 53 19 84 11 30 23
92 27 137 4 49 20 122 39 182 63 188 94 416 101 720 2 106 9 207 16 228 8 27
8 41 1 48 -37 37 -61 -63 -62 -248 -1 -172 -3 -190 -42 -381 -40 -191 -97
-383 -165 -553 -33 -84 -61 -173 -70 -227 -8 -48 -21 -96 -28 -107 -7 -11 -13
-34 -14 -50 0 -17 -14 -67 -30 -111 -18 -50 -34 -120 -41 -185 -31 -271 -43
-314 -111 -416 -38 -58 -133 -158 -267 -283 -52 -48 -74 -77 -86 -112 -10 -27
-24 -68 -33 -93 -31 -88 -132 -182 -259 -240 -65 -30 -177 -63 -332 -98 l-63
-14 -1 36 c0 20 -6 61 -12 91 -7 31 -11 92 -9 137 l3 81 86 21 c47 12 106 32
132 45 25 13 80 33 121 45 56 17 94 37 148 78 63 48 77 65 108 130 20 41 57
98 83 128 67 76 91 158 98 332 6 130 6 132 -24 195 -56 120 -216 274 -305 293
-27 6 -28 7 -13 42 34 82 176 299 313 480 50 66 57 72 95 75 44 3 62 26 28 35
-25 6 -27 16 -7 32 10 8 16 9 21 1 21 -35 102 36 160 141 25 45 30 65 30 124
0 64 -3 74 -33 117 -46 62 -113 109 -167 116 -37 4 -44 8 -48 32 -7 33 -30 58
-62 66 -36 9 -140 -42 -174 -85 -20 -25 -48 -43 -93 -60 -34 -13 -88 -36 -118
-51 -50 -25 -57 -26 -77 -13 -30 20 -58 9 -83 -33 -24 -38 -48 -54 -80 -54
-13 0 -24 -8 -27 -20 -4 -14 -21 -25 -56 -35 -68 -20 -98 -19 -152 7 -42 20
-45 25 -45 60 0 46 68 170 135 249 64 75 80 136 79 299 0 88 -6 161 -17 210
-42 184 -189 400 -294 429 -63 18 -489 14 -570 -5 -97 -22 -203 -76 -248 -125
-50 -56 -105 -174 -112 -242 -5 -49 10 -197 23 -232 7 -17 -21 -10 -73 16 -21
11 -46 19 -58 19 -11 0 -40 12 -65 27 -25 14 -67 38 -93 53 l-48 27 44 26 c57
33 99 89 95 124 -2 20 -16 33 -63 59 -33 19 -73 34 -88 34 -15 0 -29 6 -31 13
-5 15 -34 132 -53 212 -17 72 -45 131 -79 168 -22 24 -32 27 -93 27 -37 0 -70
-2 -72 -4z m138 -58 c30 -33 40 -57 48 -111 4 -26 11 -50 16 -53 10 -6 27 -66
39 -138 5 -28 11 -59 15 -68 5 -12 -3 -27 -27 -48 l-33 -31 -110 5 c-139 6
-196 15 -193 30 3 17 -13 79 -24 93 -8 10 -14 51 -21 151 -1 19 1 36 5 38 12
8 38 66 33 74 -3 5 -1 20 4 33 8 21 19 27 73 35 112 17 152 15 175 -10z m-819
-172 c45 -42 127 -169 164 -252 17 -40 20 -60 15 -123 -4 -53 -10 -77 -21 -83
-20 -11 -21 -57 -1 -64 10 -4 12 -15 9 -34 -5 -21 -1 -31 17 -44 33 -23 45
-20 83 17 68 68 232 113 448 123 179 8 256 -12 404 -105 25 -17 60 -33 78 -36
17 -4 42 -17 56 -29 21 -19 38 -23 103 -24 60 -2 79 1 83 13 3 8 -4 54 -15
103 -39 164 -22 269 60 372 48 61 69 75 161 107 92 32 264 46 468 37 l145 -6
60 -62 c133 -137 194 -306 195 -538 0 -101 -26 -187 -70 -228 -14 -14 -41 -52
-59 -85 -18 -33 -43 -71 -56 -85 -28 -31 -45 -82 -38 -110 4 -16 -3 -29 -30
-51 -19 -16 -49 -53 -65 -83 -47 -83 -94 -108 -252 -136 -38 -7 -106 -32 -165
-61 -175 -86 -201 -90 -655 -96 -482 -7 -820 11 -820 43 0 20 -14 25 -110 35
-93 9 -145 28 -168 60 -7 11 -20 19 -28 19 -17 0 -19 -31 -2 -48 15 -15 19
-15 -77 2 -90 16 -187 50 -210 73 -9 8 -59 31 -113 50 -53 19 -131 53 -172 75
-41 23 -87 47 -102 55 -40 21 -42 30 -8 37 29 5 30 8 30 59 0 33 -7 67 -20 92
-17 34 -18 40 -5 48 22 12 18 42 -7 60 -22 14 -22 15 -5 34 22 25 16 42 -29
71 -40 26 -41 39 -1 21 32 -15 57 -6 57 21 0 13 -17 31 -52 54 -63 40 -119 98
-144 146 -18 35 -22 117 -12 257 4 52 35 103 64 103 6 0 24 16 38 35 34 44
109 82 252 129 137 44 184 55 299 71 130 19 170 12 223 -39z m1077 -255 c16
-9 31 -24 33 -33 4 -23 -92 -98 -126 -98 -15 0 -33 -4 -41 -9 -7 -5 -27 -5
-45 0 -71 19 -298 36 -333 25 -26 -8 -90 34 -103 68 -8 22 -1 63 9 49 25 -34
91 -50 256 -63 l130 -10 67 33 c48 22 68 38 68 51 0 15 5 17 28 11 15 -3 40
-14 57 -24z m-2678 -323 c36 -35 83 -120 83 -150 0 -10 10 -22 23 -27 12 -5
36 -27 52 -50 17 -23 54 -58 84 -79 101 -70 110 -77 137 -110 26 -32 138 -96
198 -113 22 -6 34 -5 47 7 16 14 21 13 59 -11 23 -15 60 -33 83 -41 22 -8 71
-39 108 -69 37 -30 75 -55 83 -55 8 0 30 -9 48 -19 18 -11 68 -33 111 -50 42
-17 112 -48 155 -70 104 -52 157 -67 292 -86 63 -9 149 -27 191 -40 159 -50
251 -57 734 -62 253 -3 503 0 570 5 137 11 282 53 356 101 31 21 74 35 149 50
139 28 205 62 247 126 18 28 42 63 54 79 l22 28 17 -22 c16 -21 51 -38 130
-62 19 -6 67 -8 107 -6 59 4 77 10 103 31 17 15 36 27 40 27 5 0 24 13 42 28
18 16 51 33 73 39 22 6 48 14 57 18 12 5 21 -2 34 -27 22 -43 223 -240 291
-286 29 -19 53 -37 53 -39 0 -3 -31 -46 -68 -96 -38 -51 -97 -134 -132 -186
-34 -51 -71 -96 -82 -99 -22 -5 -63 -89 -114 -237 -32 -92 -40 -104 -98 -160
-68 -66 -105 -82 -251 -109 -101 -18 -365 -53 -470 -61 -44 -4 -117 -13 -162
-21 -114 -21 -320 -38 -433 -36 -135 2 -418 -17 -530 -35 -191 -32 -1381 -26
-1604 7 -38 6 -74 17 -80 24 -6 8 -32 17 -57 20 -26 4 -53 12 -61 19 -19 15
-51 142 -43 167 3 10 -1 25 -10 33 -8 9 -29 55 -45 104 -45 129 -178 391 -266
523 -42 63 -80 125 -85 138 -5 12 -21 27 -36 33 -31 11 -76 52 -133 120 l-39
45 36 52 c20 29 43 52 50 52 8 0 21 16 29 35 8 20 29 52 47 73 18 20 45 55 60
77 15 22 34 49 42 61 14 19 14 22 0 34 -20 17 -54 -19 -185 -200 -56 -77 -103
-140 -104 -140 -1 0 -43 53 -94 118 -52 67 -145 168 -217 236 -83 78 -124 124
-121 133 3 8 -1 24 -9 36 -8 12 -15 40 -15 62 0 48 30 84 92 109 73 31 102 23
172 -46 34 -35 79 -72 99 -82 34 -18 39 -18 53 -4 22 22 10 50 -30 72 -53 28
-76 57 -69 85 5 21 10 23 52 17 32 -4 55 -15 78 -38z m4874 -348 c41 -22 22
-38 -53 -42 -40 -3 -74 -4 -76 -3 -1 1 15 14 35 28 41 29 63 33 94 17z m177
-156 c40 -31 62 -73 62 -116 0 -44 -10 -78 -22 -78 -31 0 -85 -42 -149 -115
l-72 -83 -34 16 c-18 9 -33 21 -33 28 0 7 -22 26 -49 42 -26 17 -58 44 -70 60
-12 17 -30 34 -41 37 -24 8 -130 130 -130 150 0 21 87 56 150 60 30 3 80 8
110 13 30 5 98 9 150 10 86 0 98 -2 128 -24z m474 -706 c-7 -7 -12 -8 -12 -2
0 14 12 26 19 19 2 -3 -1 -11 -7 -17z m-2 -62 c0 -28 -22 -76 -35 -76 -8 0
-19 -8 -25 -17 -9 -15 -10 -13 -5 11 11 53 34 96 49 96 9 0 16 -6 16 -14z
m-55 -231 c-8 -30 -18 -55 -21 -55 -38 0 -30 120 9 137 30 14 33 -10 12 -82z
m-36 -103 c-6 -17 -13 -52 -17 -78 -6 -42 -10 -47 -33 -48 l-25 -1 19 65 c11
36 29 73 41 82 26 21 29 18 15 -20z m-826 -53 c65 -42 147 -135 181 -202 28
-57 29 -60 23 -185 -7 -165 -23 -214 -92 -294 -32 -37 -62 -83 -71 -111 -9
-26 -27 -60 -40 -76 -33 -40 -125 -101 -165 -110 -19 -4 -44 -11 -56 -15 -22
-7 -23 -6 -23 67 0 101 -21 204 -66 323 -20 54 -37 104 -37 109 0 23 95 254
109 266 9 7 23 28 33 47 l18 35 61 -84 c69 -94 104 -172 136 -304 18 -74 26
-91 42 -93 39 -6 47 20 29 90 -48 188 -96 290 -196 410 -33 39 -38 50 -30 71
9 22 77 87 92 87 3 0 26 -14 52 -31z m-4057 -116 c0 -61 13 -103 52 -165 13
-20 28 -64 34 -97 11 -56 9 -65 -15 -128 -62 -158 -79 -233 -84 -363 -3 -69
-9 -129 -14 -135 -5 -5 -9 -17 -9 -26 0 -15 -5 -16 -37 -7 -99 27 -226 115
-259 179 -19 37 -19 262 0 361 25 128 55 182 158 278 51 47 108 101 127 121
20 20 39 37 42 38 3 0 5 -25 5 -56z m4833 -98 c-20 -69 -23 -74 -39 -60 -9 8
-20 12 -24 8 -5 -5 -5 12 -2 37 13 86 17 99 30 94 7 -3 21 5 32 17 l19 21 3
-21 c2 -12 -7 -55 -19 -96z m-1067 30 c-18 -22 -57 -108 -92 -201 -11 -28 -11
-28 -56 55 -25 46 -43 88 -41 95 3 7 33 18 68 25 35 7 80 21 99 31 45 25 45
25 22 -5z m-262 -68 c0 -7 10 -30 22 -52 12 -22 40 -75 64 -119 l42 -79 -24
-69 c-33 -97 -69 -252 -89 -383 -23 -148 -25 -151 -77 -159 -110 -18 -278 -36
-339 -36 l-66 0 -2 108 c-4 205 -57 517 -110 644 -17 39 -27 76 -23 80 5 5 85
16 177 24 93 9 219 24 280 34 140 22 145 23 145 7z m-666 -125 c66 -131 114
-371 123 -614 l6 -158 -149 0 c-82 0 -230 -7 -329 -15 -193 -16 -504 -19 -782
-8 -173 6 -173 6 -173 30 0 12 -4 23 -9 23 -5 0 -8 6 -7 13 0 6 -15 43 -34 82
-35 69 -35 71 -35 200 1 134 29 313 61 381 l15 31 162 6 c89 4 202 13 252 21
49 7 95 11 102 9 20 -8 69 -140 98 -263 15 -63 35 -130 44 -150 12 -27 16 -70
16 -190 0 -149 1 -155 21 -158 39 -6 46 19 47 175 1 120 -2 155 -16 188 -10
21 -31 94 -47 161 -16 67 -40 150 -54 185 -14 34 -23 65 -20 68 3 3 107 7 232
8 125 1 252 6 282 11 30 5 81 10 112 11 l58 1 24 -48z m1952 33 c-3 -9 -13
-44 -22 -78 -9 -34 -18 -64 -20 -66 -3 -3 -1 29 2 70 4 41 12 77 18 81 18 13
29 9 22 -7z m-4441 -36 c39 -5 179 -14 313 -18 133 -4 244 -10 247 -13 3 -2
-4 -31 -15 -64 -51 -146 -75 -283 -75 -429 0 -132 2 -143 27 -195 15 -30 25
-56 23 -59 -13 -12 -596 26 -609 40 -2 2 -9 74 -15 159 -7 85 -23 220 -37 300
-40 228 -39 215 -14 254 25 41 37 43 155 25z m1091 -46 c-70 -240 -82 -476
-31 -603 15 -36 33 -82 41 -104 l14 -39 -234 5 -234 5 -39 30 c-101 81 -100
300 3 641 l25 82 230 0 c215 0 230 -1 225 -17z m3299 -153 c-4 -17 -22 -53
-40 -80 -19 -28 -36 -59 -40 -69 -3 -11 -12 -22 -21 -25 -11 -4 -13 -15 -8
-45 5 -31 2 -48 -13 -74 -11 -18 -23 -55 -28 -82 -13 -91 -80 -183 -184 -255
-83 -56 -132 -112 -171 -193 -35 -71 -36 -73 -115 -112 -44 -22 -107 -53 -140
-67 -33 -15 -80 -39 -105 -52 -25 -14 -52 -28 -60 -31 -8 -2 -22 -9 -30 -13
-8 -5 -33 -18 -56 -29 l-41 -20 -9 31 c-12 41 -55 45 -64 6 -6 -24 -7 -24 -17
10 -21 64 -25 116 -11 127 7 6 41 16 76 23 35 6 69 14 77 16 9 4 19 -6 28 -28
18 -41 65 -98 82 -98 22 0 24 27 3 47 -11 10 -29 34 -39 55 l-19 36 47 16 c66
23 77 20 104 -19 28 -40 43 -49 58 -31 8 9 4 22 -14 46 -31 42 -31 44 0 58 22
10 26 8 46 -28 27 -47 57 -61 76 -34 17 23 12 38 -13 42 -19 4 -44 28 -44 43
0 4 14 17 31 29 l30 22 23 -21 c12 -11 30 -21 39 -21 29 0 30 22 1 45 l-29 23
30 24 c20 15 43 23 70 23 29 0 40 4 43 17 2 11 -5 18 -20 20 -13 2 -22 9 -21
18 1 15 42 132 48 138 2 2 17 -4 34 -12 39 -21 51 -20 51 2 0 11 -14 25 -35
35 -30 14 -34 20 -26 35 11 21 87 92 124 117 25 16 28 16 56 -1 25 -15 34 -16
56 -6 31 15 28 36 -6 40 -52 6 -53 11 -8 60 60 64 111 136 144 202 43 87 64
103 50 40z m-4595 -111 c20 -123 44 -388 37 -396 -3 -2 -25 -1 -49 4 l-43 9 0
53 c-1 43 -5 56 -24 70 -22 17 -22 20 -12 107 5 49 21 128 35 177 14 48 26 90
26 94 0 3 3 4 6 1 3 -3 14 -57 24 -119z m3553 34 c28 -79 47 -183 47 -265 0
-43 5 -80 10 -83 28 -17 -24 -41 -172 -82 -15 -3 -17 1 -13 24 43 238 56 300
75 371 12 45 25 82 29 82 4 0 15 -21 24 -47z m-215 -575 l-3 -53 -65 -13 c-77
-14 -494 -34 -735 -33 -1407 1 -2396 -1 -2419 -6 -25 -4 -28 -3 -22 13 4 9 9
43 13 74 l5 56 57 -7 c195 -27 1801 -57 2061 -38 80 5 318 14 530 19 251 6
411 14 460 23 126 24 122 25 118 -35z m10 -156 c7 -32 12 -92 12 -134 0 -82
32 -210 76 -307 25 -55 29 -112 16 -199 l-7 -44 -21 29 c-12 16 -25 40 -29 53
-4 14 -28 66 -55 115 -26 50 -66 149 -89 220 -24 75 -61 163 -87 208 -25 44
-44 80 -42 81 3 3 175 32 198 35 12 1 19 -15 28 -57z m-762 16 l261 1 24 -52
c13 -28 45 -86 71 -130 26 -43 70 -138 98 -212 27 -73 66 -160 86 -191 43 -68
98 -183 145 -308 25 -66 39 -90 57 -97 13 -5 20 -13 17 -19 -4 -6 -14 -5 -28
4 -17 11 -41 12 -112 6 -132 -12 -237 -12 -230 0 9 15 -14 40 -36 40 -10 0
-35 14 -54 32 -31 26 -34 33 -21 40 27 15 18 42 -31 89 -104 98 -159 127 -388
203 -279 92 -310 96 -680 103 -263 4 -323 8 -337 20 -14 12 -30 13 -110 3
-124 -15 -272 -45 -366 -75 -42 -14 -90 -25 -105 -25 -22 0 -48 -20 -121 -93
-50 -52 -105 -116 -120 -143 -47 -80 -133 -189 -163 -204 -15 -8 -37 -22 -48
-31 -15 -12 -50 -18 -136 -23 l-115 -7 -12 25 c-10 23 -18 26 -62 26 -64 0
-192 26 -247 50 -67 29 -93 61 -93 114 0 53 36 159 93 271 33 67 61 135 93
225 4 12 6 12 14 0 7 -11 15 -12 47 -2 58 18 69 27 54 46 -11 13 -17 13 -53 0
-23 -8 -43 -12 -46 -9 -9 9 57 178 99 251 l42 72 790 2 c435 0 794 3 796 6 3
3 154 2 336 -1 181 -4 448 -7 591 -7z m364 -12 c5 -14 30 -56 55 -94 25 -38
66 -121 90 -185 53 -139 51 -137 129 -257 64 -99 73 -116 112 -214 13 -33 34
-70 45 -82 l22 -23 -31 -48 c-27 -41 -32 -45 -38 -28 -54 155 -134 328 -175
385 -11 14 -46 94 -78 178 -32 83 -72 173 -88 199 -39 61 -103 178 -103 186 0
4 11 7 25 7 18 0 28 -7 35 -24z m168 -68 c31 -56 68 -143 93 -218 22 -69 60
-162 85 -207 24 -45 51 -101 59 -123 8 -23 23 -53 33 -68 25 -35 45 -99 37
-113 -10 -15 -27 12 -64 101 -17 42 -58 118 -92 169 -73 114 -97 162 -134 266
-28 77 -114 237 -135 250 -25 15 -9 35 28 35 37 0 38 -2 90 -92z m-3448 -842
c0 -7 21 -33 48 -58 36 -34 64 -49 122 -67 84 -26 192 -76 183 -85 -11 -11
-458 -7 -491 5 -24 8 -34 20 -43 49 -14 45 -5 106 16 114 8 3 15 12 15 20 0
10 19 19 58 26 31 7 62 13 67 15 15 3 25 -4 25 -19z m4088 -57 c19 -7 23 -15
20 -41 -3 -28 -10 -37 -52 -57 -44 -22 -62 -24 -225 -28 -140 -2 -170 -1 -146
9 47 17 94 52 121 89 14 19 35 37 47 40 29 8 205 -1 235 -12z"/>
<path d="M1733 4641 c-102 -52 -196 -127 -232 -185 -22 -36 -27 -85 -11 -114
5 -9 16 -44 25 -77 21 -77 101 -230 141 -270 35 -35 130 -65 207 -65 54 0 217
39 272 66 22 10 47 17 56 16 24 -4 76 61 90 110 15 57 6 277 -15 343 -9 28
-29 75 -44 105 -25 51 -30 55 -62 55 -20 0 -63 14 -99 33 -57 28 -73 32 -147
32 -79 0 -86 -2 -181 -49z"/>
<path d="M4067 4555 c-104 -22 -175 -61 -207 -116 -47 -79 -54 -114 -55 -269
0 -151 8 -220 27 -220 6 0 40 -19 76 -41 65 -41 164 -81 235 -94 20 -4 40 -11
43 -16 3 -5 27 -9 53 -9 37 0 57 7 89 29 89 65 192 227 192 302 0 21 6 28 26
33 24 6 26 10 21 43 -9 51 -91 211 -139 269 -62 76 -103 96 -206 100 -50 2
-116 -3 -155 -11z"/>
<path d="M2722 3998 c-14 -14 -16 -96 -3 -116 4 -8 19 -12 32 -11 13 2 30 0
37 -5 7 -4 24 -5 38 -2 15 4 24 2 24 -5 0 -7 12 -10 30 -7 18 3 35 -1 41 -9
14 -16 41 -17 57 -1 8 8 32 8 95 -1 93 -13 191 -6 208 15 6 7 8 22 4 33 -8 25
-68 61 -85 51 -12 -8 -35 -7 -162 5 -40 3 -69 2 -73 -4 -8 -14 -68 -1 -78 16
-10 16 -43 17 -53 2 -5 -8 -9 -7 -16 4 -7 14 -62 47 -78 47 -3 0 -11 -5 -18
-12z"/>
<path d="M3440 3952 c-111 -51 -125 -60 -125 -82 0 -16 6 -26 18 -28 25 -5
285 107 292 126 7 20 -13 42 -39 41 -11 0 -77 -26 -146 -57z"/>
<path d="M2224 3985 c-4 -8 -3 -22 0 -30 8 -21 137 -82 205 -96 l56 -12 -124
-42 c-69 -22 -129 -48 -134 -57 -14 -21 -2 -48 20 -48 35 0 385 122 390 136 3
8 -2 30 -11 49 l-17 35 -80 0 c-65 0 -94 6 -159 31 -44 17 -82 35 -85 40 -10
15 -55 10 -61 -6z"/>
<path d="M3386 3807 c-31 -23 -16 -51 34 -63 l45 -12 -33 -12 c-29 -11 -33
-17 -30 -40 4 -25 0 -28 -44 -40 -86 -22 -250 12 -294 61 -11 12 -24 37 -29
58 -17 58 -45 54 -94 -13 -50 -67 -65 -76 -131 -76 -61 0 -111 21 -125 53 -12
27 -51 34 -74 13 -26 -24 -176 -76 -255 -90 -71 -12 -95 -29 -83 -60 13 -32
144 -10 296 51 50 20 68 23 80 14 42 -30 75 -42 130 -47 86 -9 125 1 172 45
l40 39 16 -24 c42 -64 223 -115 344 -96 84 13 96 6 230 -125 112 -109 141
-123 147 -73 2 21 -12 40 -70 96 -40 38 -94 88 -120 111 -53 45 -62 79 -27
101 13 8 18 19 15 29 -8 20 25 12 106 -24 64 -28 88 -25 88 11 0 39 -80 72
-291 120 -14 3 -33 0 -43 -7z"/>
<path d="M4451 3146 c-8 -9 -10 -31 -5 -64 5 -43 3 -53 -15 -71 -26 -26 -27
-71 -2 -102 16 -20 21 -21 34 -10 9 7 20 10 25 8 4 -3 14 -2 20 2 10 6 10 30
-3 117 -17 114 -32 147 -54 120z"/>
<path d="M4554 3089 c-3 -6 0 -17 8 -25 13 -13 16 -13 27 0 7 8 10 20 6 26 -8
13 -32 13 -41 -1z"/>
<path d="M4706 3055 c-17 -25 -21 -72 -8 -91 24 -37 107 -42 100 -6 -2 11 -15
18 -36 20 -26 3 -32 8 -32 26 0 13 10 30 22 38 12 8 18 19 14 26 -12 20 -43
13 -60 -13z"/>
<path d="M4256 3008 c-9 -12 -16 -37 -16 -55 0 -37 28 -58 66 -49 13 4 32 1
43 -6 15 -9 23 -9 35 1 17 14 11 41 -10 41 -8 0 -20 15 -28 34 -13 32 -41 56
-65 56 -5 0 -17 -10 -25 -22z m35 -61 c-8 -8 -11 -7 -11 4 0 20 13 34 18 19 3
-7 -1 -17 -7 -23z"/>
<path d="M4565 3020 c-8 -13 3 -97 14 -104 4 -3 13 -1 20 4 10 6 11 19 5 56
-9 47 -26 66 -39 44z"/>
<path d="M5617 1563 c-11 -10 -8 -33 4 -33 6 0 19 -10 29 -22 14 -17 21 -20
30 -12 9 9 8 19 -4 43 -15 29 -43 40 -59 24z"/>
<path d="M1557 1164 c-14 -14 -7 -72 8 -78 19 -7 28 12 23 50 -3 27 -18 41
-31 28z"/>
<path d="M1506 1018 c-10 -38 -7 -48 13 -48 17 0 31 25 31 58 0 22 -37 13 -44
-10z"/>
<path d="M1431 925 c-24 -25 -31 -39 -24 -46 25 -25 92 33 79 67 -8 21 -18 17
-55 -21z"/>
<path d="M6000 1071 c-13 -26 -13 -337 1 -477 15 -150 54 -353 71 -370 16 -16
44 -10 51 11 3 7 -5 66 -18 131 -34 167 -45 297 -45 519 0 167 -2 194 -16 199
-25 10 -33 7 -44 -13z"/>
<path d="M96 975 c-9 -25 -7 -668 3 -683 4 -8 19 -12 32 -10 l24 3 0 350 0
350 -26 3 c-17 2 -29 -3 -33 -13z"/>
<path d="M5353 234 c-3 -9 -2 -24 4 -33 9 -14 46 -16 299 -19 259 -2 290 -1
301 14 9 12 9 22 2 35 -9 18 -27 19 -305 19 -264 0 -295 -2 -301 -16z"/>
</g>
</svg>
